<svg xmlns="http://www.w3.org/2000/svg" viewBox="0 0 360 220" fill="none"><defs><pattern id="grain" width="13" height="13" patternUnits="userSpaceOnUse"><path d="M3 5h1m7 5h1" stroke="#353548" opacity=".12" stroke-width="1"/></pattern></defs><g stroke="#303345" stroke-width="3" stroke-linecap="round" stroke-linejoin="round"><path d="m192 32 28 8 2 16 15 9 15-7 20 21-8 15 5 17 17 7-1 29-18 5-7 16 5 16-24 16-12-11-18 1-8 14-27-7-1-17-14-11-17 4-15-23 10-13-2-17-16-8 6-29 17-2 12-13-4-16 23-13 13 11 17-2Z" fill="#c9b1ef"/><circle cx="201" cy="116" r="35" fill="#fff5d6"/><circle cx="201" cy="116" r="17" fill="#9ddbea"/><g transform="rotate(-18 109 133)"><path d="M86 96v-16q0-37 36-37 31 0 31 33v20" stroke-width="12"/><path d="M86 96v-16q0-37 36-37 31 0 31 33v20" stroke="#7cacc0" stroke-width="6"/><rect x="65" y="91" width="99" height="95" rx="16" fill="#ffd25e"/><circle cx="114" cy="130" r="12" fill="#303345"/><path d="m111 137-4 19h15l-5-19" fill="#303345"/></g><path d="m290 41 4 11 12 3-11 6-4 11-4-11-11-5 10-4Z" fill="#f9959f"/><g stroke-width="2" opacity=".45"><path d="m58 185 7-9m0 13 7-9m219-143 7-9m0 13 7-9"/></g></g><rect width="360" height="220" fill="url(#grain)" opacity=".45"/></svg>