<svg xmlns="http://www.w3.org/2000/svg" viewBox="0 0 360 220" fill="none"><defs><pattern id="grain" width="13" height="13" patternUnits="userSpaceOnUse"><path d="M3 5h1m7 5h1" stroke="#353548" opacity=".12" stroke-width="1"/></pattern></defs><g stroke="#303345" stroke-width="3" stroke-linecap="round" stroke-linejoin="round"><path d="M69 53q51-12 100 6 47-20 100-2l-5 136q-47-18-94-4-43-15-98-2Z" fill="#f8dd8b"/><path d="M81 38q40-7 88 14 43-22 84-11l1 137q-45-12-84 4-44-18-91-9Z" fill="#fff9e7"/><path d="m169 52 1 130" stroke="#bd9c74" stroke-width="2"/><path d="m97 72 43 3m-42 16 42 4m-42 15 45 4m-45 15 23 3m66-58 43-3m-43 22 43-3m-42 23 38-3m-38 22 20-2" stroke="#a3b4b3" stroke-width="3"/><path d="m203 43 18-3 1 49-11-10-9 10Z" fill="#f98f92"/><circle cx="275" cy="145" r="28" fill="#92e1e4"/><circle cx="275" cy="145" r="17" fill="#fff9e7"/><path d="m295 164 22 24" stroke-width="11"/><path d="m295 164 22 24" stroke="#d18b72" stroke-width="6"/><path d="m48 88 6 12 13 4-12 6-5 13-5-12-13-5 12-5Z" fill="#ffdd5b"/><path d="m279 59 9-12m2 21 14-2" stroke="#e3a758"/><g stroke-width="2" opacity=".45"><path d="m58 185 7-9m0 13 7-9m219-143 7-9m0 13 7-9"/></g></g><rect width="360" height="220" fill="url(#grain)" opacity=".45"/></svg>