<svg xmlns="http://www.w3.org/2000/svg" viewBox="0 0 360 220" fill="none"><defs><pattern id="grain" width="13" height="13" patternUnits="userSpaceOnUse"><path d="M3 5h1m7 5h1" stroke="#353548" opacity=".12" stroke-width="1"/></pattern></defs><g stroke="#303345" stroke-width="3" stroke-linecap="round" stroke-linejoin="round"><path d="m83 28 192 9-9 162-192-9Z" fill="#b4a3ed"/><path d="m81 29 12 1-9 160-12-1Z" fill="#746cc8"/><g transform="rotate(-9 173 118)"><rect x="102" y="62" width="127" height="127" rx="2" fill="#fff9e5"/><path d="M113 73h105v79H113Z" fill="#8dd6e3"/><circle cx="191" cy="93" r="13" fill="#ffdf63"/><path d="m115 136 32-36 31 39 16-18 25 25v6H113Z" fill="#7bad84"/><path d="m147 100-10 13h21Z" fill="#fff9e5"/><path d="M139 168q27 7 52 0" stroke="#b39081"/></g><path d="m136 43 56 4-2 25-58-4Z" fill="#ffc276" stroke-dasharray="3 4"/><path d="m53 112 33 3-4 27-33-4Z" fill="#fc858a"/><path d="m57 120 15 2m-16 7 12 2" stroke="#ffe8d2"/><path d="m261 64 15 2 3 29 23-20 10 12-23 20 30 7-3 15-39-9-8-34Z" fill="#ffe269"/><path d="M298 163q-13-18-20-2-3 9 20 21 22-13 20-22-8-14-20 3Z" fill="#ff777e"/><path d="M104 39q-15-4-11-18 5-18 14-8 6 5 2 21l-2 6" stroke="#596080" stroke-width="4"/><g stroke-width="2" opacity=".45"><path d="m58 185 7-9m0 13 7-9m219-143 7-9m0 13 7-9"/></g></g><rect width="360" height="220" fill="url(#grain)" opacity=".45"/></svg>