<svg xmlns="http://www.w3.org/2000/svg" viewBox="0 0 140 100">
<defs><linearGradient id="body" x1="0" y1="0" x2="1" y2="1"><stop stop-color="#fffdf5"/><stop offset="1" stop-color="#e1e6e7"/></linearGradient><linearGradient id="wing" x1="0" y1="0" x2="0" y2="1"><stop stop-color="#f7f8f5"/><stop offset="1" stop-color="#c0cbd0"/></linearGradient></defs>
<g stroke="#243944" stroke-width="3.2" stroke-linejoin="round" stroke-linecap="round">
<path d="M62 48C43 58 25 72 10 91c23-6 40-16 51-31Z" fill="url(#wing)"/>
<path d="M78 48c19 10 37 24 52 43-23-6-40-16-51-31Z" fill="url(#wing)"/>
<path d="M14 87c10-5 20-11 28-19l-3 14-11 8Z" fill="#59666e"/><path d="M126 87c-10-5-20-11-28-19l3 14 11 8Z" fill="#59666e"/>
<path d="M57 57 47 82l18-9 5 16 6-16 18 9-11-25Z" fill="#eef1ef"/>
<ellipse cx="70" cy="53" rx="28" ry="22" fill="url(#body)"/>
<circle cx="91" cy="46" r="17" fill="#fffdf5"/>
<path d="m104 45 27 7-27 9Z" fill="#f4a72c"/>
<circle cx="96" cy="41" r="4.2" fill="#172830"/><circle cx="97.2" cy="39.7" r="1.1" fill="#fff"/>
</g></svg>